<svg xmlns="http://www.w3.org/2000/svg" viewBox="0 0 512 512" role="img" aria-labelledby="title desc">
  <title id="title">CIO AVA</title>
  <desc id="desc">Escudo con autobús, gráfica ascendente y degradado tornasol</desc>
  <defs>
    <linearGradient id="g" x1="70" y1="70" x2="450" y2="450" gradientUnits="userSpaceOnUse">
      <stop offset="0" stop-color="#d8b4fe"/>
      <stop offset="0.30" stop-color="#8b5cf6"/>
      <stop offset="0.62" stop-color="#4f46e5"/>
      <stop offset="1" stop-color="#06b6d4"/>
    </linearGradient>
    <linearGradient id="glass" x1="155" y1="165" x2="350" y2="315" gradientUnits="userSpaceOnUse">
      <stop stop-color="#ffffff" stop-opacity=".96"/>
      <stop offset="1" stop-color="#dbeafe" stop-opacity=".82"/>
    </linearGradient>
    <filter id="shadow" x="-20%" y="-20%" width="140%" height="140%">
      <feDropShadow dx="0" dy="12" stdDeviation="14" flood-color="#4f46e5" flood-opacity=".28"/>
    </filter>
  </defs>
  <path d="M256 38 426 98v128c0 111-70 202-170 248C156 428 86 337 86 226V98z" fill="none" stroke="url(#g)" stroke-width="30" stroke-linejoin="round" filter="url(#shadow)"/>
  <g transform="translate(116 130)">
    <rect x="35" y="35" width="225" height="190" rx="42" fill="url(#g)"/>
    <rect x="62" y="67" width="171" height="78" rx="18" fill="url(#glass)"/>
    <path d="M86 94h123" stroke="#4338ca" stroke-width="13" stroke-linecap="round" opacity=".75"/>
    <rect x="66" y="160" width="38" height="24" rx="9" fill="#fff" opacity=".95"/>
    <rect x="191" y="160" width="38" height="24" rx="9" fill="#fff" opacity=".95"/>
    <circle cx="92" cy="226" r="24" fill="#111827" stroke="#c4b5fd" stroke-width="10"/>
    <circle cx="207" cy="226" r="24" fill="#111827" stroke="#67e8f9" stroke-width="10"/>
    <path d="M260 166 304 122l34 28 56-70" fill="none" stroke="url(#g)" stroke-width="22" stroke-linecap="round" stroke-linejoin="round"/>
    <path d="m365 82 32-4-5 31" fill="none" stroke="#06b6d4" stroke-width="18" stroke-linecap="round" stroke-linejoin="round"/>
    <path d="M281 224v70M326 194v100M371 154v140" stroke="url(#g)" stroke-width="23" stroke-linecap="round"/>
  </g>
</svg>
