<svg xmlns="http://www.w3.org/2000/svg" viewBox="0 0 24 24" fill="none" stroke="currentColor" stroke-width="1.8" stroke-linecap="round" stroke-linejoin="round"><circle cx="12" cy="12" r="3"/><path d="M19 13.5v-3l-2-.7a7 7 0 0 0-.7-1.7l.9-1.9-2.1-2.1-1.9.9a7 7 0 0 0-1.7-.7L10.5 2h-3l-.7 2.3a7 7 0 0 0-1.7.7l-1.9-.9-2.1 2.1.9 1.9a7 7 0 0 0-.7 1.7L-1 10.5v3l2.3.7a7 7 0 0 0 .7 1.7l-.9 1.9 2.1 2.1 1.9-.9a7 7 0 0 0 1.7.7l.7 2.3h3l.7-2.3a7 7 0 0 0 1.7-.7l1.9.9 2.1-2.1-.9-1.9a7 7 0 0 0 .7-1.7Z" transform="translate(3) scale(.75)"/></svg>